<svg width="311" height="70" viewBox="0 0 311 70" fill="none" xmlns="http://www.w3.org/2000/svg">
<path fill-rule="evenodd" clip-rule="evenodd" d="M51.8333 39.6883C50.9694 40.2058 49.9328 40.3783 49.2417 39.8608C48.205 39.3433 47.6867 37.9633 47.6867 36.2383V30.7183C47.6867 28.1308 46.65 26.2333 44.9222 25.7158C41.985 24.8533 39.7389 28.4758 38.875 29.8558L33.6917 38.3083V27.9583C33.6917 25.5433 32.8278 24.1633 31.4456 23.8183C30.4089 23.4733 29.0267 23.6458 27.6444 25.7158L16.0683 44.3458C14.5133 41.4133 13.6494 38.1358 13.6494 34.6858C13.6494 23.4733 22.6339 14.3308 33.6917 14.3308C44.7494 14.3308 53.7339 23.6458 53.7339 34.8583C53.9067 37.1008 53.2156 38.8258 51.8333 39.6883ZM58.2261 34.8583C58.2261 21.0583 47.1683 10.0183 33.6917 10.0183C20.215 10.0183 9.15723 21.2308 9.15723 34.8583C9.15723 48.4858 20.215 59.6983 33.6917 59.6983C39.9117 59.6983 45.7861 57.2833 50.4511 52.9708C51.315 52.1083 51.4878 50.7283 50.6239 49.6933C49.76 48.8308 48.3778 48.6583 47.5139 49.5208C43.8856 52.9708 38.875 55.0408 33.8644 55.0408C27.99 55.0408 22.6339 52.4533 18.8328 48.3133L29.3722 31.4083V39.1708C29.3722 42.9658 30.7544 44.1733 31.9639 44.5183C33.1733 44.8633 35.0739 44.6908 36.9744 41.4133L42.6761 32.0983C42.8489 31.7533 43.0217 31.5808 43.1945 31.2358V35.8933C43.1945 39.3433 44.5767 42.1033 46.9956 43.4833C49.2417 44.6908 52.0061 44.6908 54.2522 43.1383C57.0167 41.9308 58.3989 38.6533 58.2261 34.8583ZM92.4361 26.4058C92.9544 26.7508 93.4728 27.6133 93.4728 28.3033C93.4728 29.5108 92.4361 30.3733 91.3995 30.3733C91.0539 30.3733 90.8811 30.3733 90.5356 30.2008C89.1533 29.1658 87.5983 28.6483 85.8706 28.6483C81.7239 28.6483 78.9594 31.9258 78.9594 36.0658C78.9594 40.2058 81.7239 43.4833 85.8706 43.4833C87.9439 43.4833 89.6717 42.6208 91.0539 41.4133C91.3995 41.2408 91.9178 41.0683 92.2633 41.0683C93.3 41.0683 94.1639 41.9308 94.1639 43.1383C94.1639 43.8283 93.6456 44.5183 93.1272 44.8633C91.2267 46.5883 88.4622 47.6233 85.6978 47.6233C79.4778 47.6233 74.2944 42.4483 74.2944 36.0658C74.2944 29.6833 79.4778 24.5083 85.6978 24.5083C88.4622 24.3358 90.7083 25.0258 92.4361 26.4058ZM104.012 31.2358C108.332 31.2358 111.96 34.8583 111.96 39.3433C111.96 43.8283 108.332 47.6233 104.012 47.6233C99.52 47.6233 95.7189 43.8283 95.7189 39.3433C95.7189 34.8583 99.52 31.2358 104.012 31.2358ZM104.012 43.4833C105.913 43.4833 107.468 41.7583 107.468 39.3433C107.468 36.9283 105.913 35.3758 104.012 35.3758C101.939 35.3758 100.211 36.9283 100.211 39.3433C100.211 41.7583 101.939 43.4833 104.012 43.4833ZM114.552 45.0358V33.6508C114.552 32.4433 115.588 31.4083 116.798 31.4083C118.007 31.4083 119.044 32.4433 119.044 33.6508V45.0358C119.044 46.2433 118.007 47.2783 116.798 47.2783C115.588 47.2783 114.552 46.2433 114.552 45.0358ZM114.206 27.0958C114.206 25.5433 115.416 24.5083 116.798 24.5083C118.18 24.5083 119.389 25.7158 119.389 27.0958C119.389 28.4758 118.18 29.6833 116.798 29.6833C115.416 29.6833 114.206 28.4758 114.206 27.0958ZM127.51 38.8258V45.0358C127.51 46.2433 126.473 47.2783 125.264 47.2783C124.054 47.2783 123.018 46.2433 123.018 45.0358V33.1333C123.018 32.0983 123.882 31.4083 124.746 31.4083C125.609 31.4083 126.473 32.2708 126.473 33.1333C128.201 31.4083 129.929 31.2358 131.311 31.2358C135.803 31.2358 137.704 34.5133 137.704 38.3083V45.0358C137.704 46.2433 136.667 47.2783 135.458 47.2783C134.248 47.2783 133.212 46.2433 133.212 45.0358V38.8258C133.212 36.9283 133.039 35.2033 130.102 35.2033C128.374 35.2033 127.51 36.9283 127.51 38.8258ZM152.39 41.2408C151.872 41.2408 151.526 41.0683 151.181 40.7233L145.997 35.0308V45.0358C145.997 46.2433 144.961 47.2783 143.751 47.2783C142.542 47.2783 141.505 46.2433 141.505 45.0358V25.1983C141.678 24.8533 142.023 24.6808 142.369 24.6808C142.714 24.6808 143.06 25.0258 143.233 25.1983L151.526 34.5133C151.699 34.8583 152.044 35.0308 152.217 35.0308C152.39 35.0308 152.736 34.8583 152.908 34.5133L161.202 25.1983C161.374 25.0258 161.72 24.6808 162.066 24.6808C162.411 24.6808 162.757 24.8533 162.929 25.1983V45.0358C162.929 46.2433 161.893 47.2783 160.683 47.2783C159.474 47.2783 158.437 46.2433 158.437 45.0358V35.0308L153.254 40.7233C153.081 40.8958 152.736 41.2408 152.39 41.2408ZM173.642 43.4833C175.715 43.4833 177.27 41.7583 177.27 39.3433C177.27 36.9283 175.542 35.3758 173.642 35.3758C171.741 35.3758 170.186 36.9283 170.186 39.3433C170.186 41.5858 171.741 43.4833 173.642 43.4833ZM178.479 45.5533V45.0358C177.616 46.7608 174.851 47.4508 173.123 47.4508C168.977 47.4508 165.867 43.6558 165.867 39.1708C165.867 34.6858 168.977 31.0633 173.296 31.0633C173.987 31.0633 176.579 31.2358 178.479 33.4783V32.9608C178.479 31.9258 179.171 31.2358 180.207 31.2358C181.071 31.2358 181.935 32.0983 181.935 32.9608V45.3808C181.935 46.4158 181.071 47.1058 180.207 47.1058C179.171 47.2783 178.479 46.5883 178.479 45.5533ZM194.202 35.2033H193.684C190.919 35.3758 190.401 36.9283 190.401 38.8258V45.0358C190.401 46.2433 189.364 47.2783 188.155 47.2783C186.946 47.2783 185.909 46.2433 185.909 45.0358V33.1333C185.909 32.0983 186.773 31.4083 187.637 31.4083C188.501 31.4083 189.364 32.2708 189.364 33.1333C191.092 31.5808 192.302 31.2358 193.684 31.2358H194.202C195.239 31.2358 196.276 32.0983 196.276 33.3058C196.103 34.3408 195.239 35.2033 194.202 35.2033ZM211.307 44.0008C211.48 44.3458 211.653 44.6908 211.653 45.0358C211.653 46.2433 210.616 47.2783 209.407 47.2783C208.543 47.2783 208.024 46.7608 207.506 46.0708L202.323 40.2058V45.0358C202.323 46.2433 201.286 47.2783 200.077 47.2783C198.867 47.2783 197.831 46.2433 197.831 45.0358V26.9233C197.831 25.7158 198.867 24.6808 200.077 24.6808C201.286 24.6808 202.323 25.7158 202.323 26.9233V38.3083L207.506 32.6158C208.024 32.0983 208.716 31.4083 209.407 31.4083C210.443 31.4083 211.48 32.4433 211.48 33.6508C211.48 33.9958 211.48 34.3408 211.134 34.6858L207.161 39.1708L211.307 44.0008ZM219.946 35.3758C218.737 35.3758 216.836 36.0658 216.836 37.9633H223.229C223.229 35.8933 221.156 35.3758 219.946 35.3758ZM225.821 40.7233H216.836C216.836 43.3108 219.428 43.8283 220.464 43.8283C221.328 43.8283 222.538 43.6558 223.402 43.3108C223.747 43.1383 224.093 42.9658 224.611 42.9658C225.648 42.9658 226.339 43.8283 226.339 44.8633C226.339 45.5533 225.821 46.0708 225.302 46.4158C223.92 47.4508 222.192 47.6233 220.464 47.6233C215.972 47.6233 212.171 45.2083 212.171 39.5158C212.171 35.0308 214.417 31.2358 219.773 31.2358C224.093 31.2358 227.376 33.9958 227.376 38.9983C227.548 39.8608 226.857 40.7233 225.821 40.7233ZM238.261 47.4508H237.051C233.596 47.4508 231.695 45.8983 231.695 40.7233V35.2033H230.486C229.449 35.2033 228.412 34.1683 228.412 33.1333C228.412 31.9258 229.276 31.0633 230.486 31.0633H231.695V26.9233C231.695 25.7158 232.732 24.6808 233.941 24.6808C235.151 24.6808 236.187 25.7158 236.187 26.9233V31.0633H238.088C239.124 31.0633 240.161 31.9258 240.161 33.1333C240.161 34.1683 239.297 35.2033 238.088 35.2033H236.187V39.8608C236.187 42.9658 236.36 43.4833 237.742 43.4833H238.433C239.47 43.4833 240.334 44.3458 240.334 45.5533C240.161 46.5883 239.297 47.4508 238.261 47.4508ZM259.685 26.4058C260.203 26.7508 260.722 27.6133 260.722 28.3033C260.722 29.5108 259.685 30.3733 258.648 30.3733C258.303 30.3733 258.13 30.3733 257.784 30.2008C256.402 29.1658 254.847 28.6483 253.119 28.6483C248.973 28.6483 246.208 31.9258 246.208 36.0658C246.208 40.2058 248.973 43.4833 253.119 43.4833C255.193 43.4833 256.921 42.6208 258.303 41.4133C258.648 41.2408 259.167 41.0683 259.512 41.0683C260.549 41.0683 261.413 41.9308 261.413 43.1383C261.413 43.8283 260.894 44.5183 260.376 44.8633C258.476 46.5883 255.711 47.6233 252.947 47.6233C246.727 47.6233 241.543 42.4483 241.543 36.0658C241.543 29.6833 246.727 24.5083 252.947 24.5083C255.711 24.3358 257.957 25.0258 259.685 26.4058ZM271.088 43.4833C273.162 43.4833 274.717 41.7583 274.717 39.3433C274.717 36.9283 272.989 35.3758 271.088 35.3758C269.188 35.3758 267.633 36.9283 267.633 39.3433C267.46 41.5858 269.015 43.4833 271.088 43.4833ZM275.753 45.5533V45.0358C274.889 46.7608 272.125 47.4508 270.397 47.4508C266.251 47.4508 263.141 43.6558 263.141 39.1708C263.141 34.6858 266.251 31.0633 270.57 31.0633C271.261 31.0633 273.853 31.2358 275.753 33.4783V32.9608C275.753 31.9258 276.444 31.2358 277.481 31.2358C278.345 31.2358 279.209 32.0983 279.209 32.9608V45.3808C279.209 46.4158 278.345 47.1058 277.481 47.1058C276.444 47.2783 275.753 46.5883 275.753 45.5533ZM291.476 43.4833C293.377 43.4833 294.932 41.5858 294.932 39.3433C294.932 36.9283 293.377 35.3758 291.476 35.3758C289.576 35.3758 287.848 36.9283 287.848 39.3433C287.675 41.7583 289.403 43.4833 291.476 43.4833ZM287.675 46.2433V51.9358C287.675 53.1433 286.638 54.1783 285.429 54.1783C284.219 54.1783 283.183 53.1433 283.183 51.9358V33.1333C283.183 32.0983 284.047 31.4083 284.911 31.4083C285.774 31.4083 286.638 32.2708 286.638 33.3058C288.366 31.5808 290.267 31.2358 291.822 31.2358C296.141 31.2358 299.251 34.8583 299.251 39.3433C299.251 43.8283 296.141 47.6233 291.994 47.6233C290.785 47.4508 288.884 47.1058 287.675 46.2433Z" fill="#3D020C"/>
</svg>
