<svg width="214" height="76" viewBox="0 0 214 76" fill="none" xmlns="http://www.w3.org/2000/svg">
<g clip-path="url(#clip0_185_89)">
<path d="M56.26 38.0085C56.26 22.6335 43.9343 10.2585 28.735 10.0335C12.8551 9.80847 0.0755941 22.4835 -2.43029e-05 37.4835C-0.0756427 53.0835 12.4014 65.5335 27.9788 65.6835C43.4049 65.8335 56.26 53.2335 56.26 38.0085Z" fill="#3D020C"/>
<path d="M56.26 38.0085C56.26 53.2335 43.4049 65.7585 28.0544 65.6835C12.4014 65.5335 -0.0756427 53.0835 -2.43049e-05 37.4835C0.0755941 22.4835 12.8551 9.80847 28.735 10.0335C43.8586 10.2585 56.26 22.6335 56.26 38.0085ZM6.73001 52.3335C7.33496 50.7585 7.93991 49.5585 8.16676 48.2085C8.84733 43.9335 9.45227 39.5835 9.9816 35.3085C10.4353 31.0335 12.5526 28.0335 16.2579 25.7835C21.1731 22.7835 26.6176 23.9835 31.8353 23.6085C32.894 23.5335 34.0282 24.6585 35.0869 25.3335C36.0699 26.0085 36.9774 26.9835 38.036 27.4335C40.607 28.5585 43.4049 29.1585 45.9003 30.4335C49.53 32.3085 50.2106 34.9335 47.942 38.3835C46.8078 40.0335 45.2198 41.3835 43.9342 42.9585C40.6827 46.9335 37.2798 50.7585 34.482 55.0335C33.1208 57.2085 33.0452 60.1335 32.3646 63.0585C42.9512 61.9335 52.4791 52.5585 54.0671 42.4335C55.9576 30.2835 49.8325 19.0335 38.7922 14.1585C27.8275 9.43347 15.1237 12.5085 7.56181 21.8835C0.604923 30.4335 0.0755936 43.4085 6.73001 52.3335ZM29.4911 31.4835C29.4911 28.5585 27.2226 26.2335 24.3491 26.2335C21.7025 26.2335 19.207 28.7835 19.207 31.4835C19.2827 34.3335 21.6268 36.5835 24.5003 36.5085C27.2226 36.5085 29.4911 34.1835 29.4911 31.4835Z" fill="white"/>
<path d="M142.692 34.7084C145.641 34.7084 148.288 34.7084 151.085 34.7084C151.085 38.3084 151.085 41.6834 151.085 45.9584C149.724 45.0584 148.817 44.5334 147.758 43.8584C144.734 46.4834 139.138 46.2584 135.962 43.4084C132.408 40.1834 131.576 34.3334 134.071 29.8334C136.189 25.9334 140.65 24.1334 145.112 25.3334C148.514 26.2334 150.481 28.6334 150.481 31.8584C148.741 32.3084 147.607 32.2334 146.548 30.2834C144.96 27.2834 140.196 27.2834 138.079 30.0584C136.037 32.6834 135.659 38.4584 138.079 40.6334C139.44 41.9084 141.936 42.5834 143.826 42.4334C146.246 42.2834 147.531 40.2584 147.683 37.5584C146.019 37.5584 144.431 37.5584 142.616 37.5584C142.692 36.5084 142.692 35.6834 142.692 34.7084Z" fill="#3D020C"/>
<path d="M88.3222 37.6336C89.6077 37.6336 90.742 37.6336 91.8763 37.6336C90.8932 43.7086 87.9441 45.9586 81.819 45.5086C77.5088 45.2086 74.0303 41.0836 73.9547 36.2836C73.8791 30.5086 75.9964 26.8336 80.3823 25.5586C85.9024 23.9836 91.6494 26.4586 91.8006 31.8586C89.9102 32.2336 88.5491 32.3836 87.3392 30.1336C85.5999 26.9836 80.9116 27.3586 78.7943 30.5086C77.1307 33.0586 76.8282 37.8586 78.9455 40.0336C80.1554 41.3086 82.3483 42.3586 84.0876 42.4336C86.8855 42.5836 87.8685 40.1086 88.3222 37.6336Z" fill="#3D020C"/>
<path d="M197.44 31.1834C197.213 31.5584 197.137 31.7834 196.91 32.0084C192.751 36.4334 192.827 36.4334 196.23 41.6084C196.986 42.7334 197.591 43.8584 198.423 45.2084C196.154 45.5834 194.415 45.7334 193.281 43.4834C192.449 41.8334 191.39 40.4084 190.407 38.8334C187.08 40.1084 188.895 42.9584 188.063 45.1334C186.021 45.7334 184.736 45.6584 184.811 42.8084C184.963 37.1834 184.887 31.5584 184.887 25.6334C185.946 25.5584 186.929 25.4834 188.29 25.4084C188.29 29.0834 188.29 32.5334 188.29 36.1334C191.617 34.4834 192.676 29.8334 197.44 31.1834Z" fill="#3D020C"/>
<path d="M167.495 39.0585C165.68 39.0585 164.016 39.0585 162.353 39.0585C160.689 39.0585 159.025 39.0585 156.454 39.0585C157.589 40.5585 158.194 42.1335 159.025 42.3585C160.387 42.6585 161.975 42.1335 163.336 41.6835C164.47 41.3085 165.529 40.5585 167.192 39.7335C166.058 44.5335 163.109 46.2585 158.799 45.5085C155.245 44.9085 153.127 41.1585 153.732 36.3585C154.11 32.9835 157.437 30.2835 160.84 30.4335C164.999 30.6585 167.57 33.8835 167.495 39.0585ZM163.789 36.6585C163.714 34.3335 162.504 33.1335 160.311 33.2835C158.421 33.4335 157.135 34.4085 157.286 36.8085C159.025 36.8085 160.689 36.8085 162.277 36.8085C162.806 36.8085 163.26 36.7335 163.789 36.6585Z" fill="#3D020C"/>
<path d="M206.363 45.5084C202.128 45.5084 198.876 42.2084 198.952 37.9334C199.028 33.5834 202.204 30.3584 206.438 30.4334C210.824 30.4334 214.151 33.8084 213.924 38.2334C213.698 42.8834 210.37 46.1084 206.363 45.5084ZM210.37 37.9334C210.37 35.0084 208.858 33.2084 206.438 33.2834C204.17 33.3584 202.43 35.4584 202.43 38.0834C202.43 40.7834 204.245 42.7334 206.514 42.7334C208.934 42.7334 210.37 40.8584 210.37 37.9334Z" fill="#3D020C"/>
<path d="M100.951 45.5084C96.1866 45.5084 93.8424 42.9584 93.8424 37.9334C93.8424 33.1334 96.5647 30.3584 101.102 30.4334C105.336 30.5084 108.512 33.7334 108.437 38.1584C108.437 42.6584 105.488 45.5084 100.951 45.5084ZM97.2452 38.1584C97.2452 41.2334 98.6064 42.8084 101.177 42.7334C103.522 42.6584 105.11 40.7084 105.034 37.9334C104.958 35.2334 103.219 33.2084 100.951 33.2834C98.4551 33.3584 97.2452 35.0084 97.2452 38.1584Z" fill="#3D020C"/>
<path d="M130.215 45.3584C128.929 45.3584 128.097 45.3584 126.736 45.3584C126.736 42.4334 126.736 39.5834 126.736 36.7334C126.736 34.9334 126.434 33.3584 124.165 33.3584C121.972 33.2834 120.989 34.7084 120.838 36.6584C120.687 39.4334 120.763 42.2834 120.763 45.2834C119.553 45.2834 118.57 45.2834 117.435 45.2834C117.435 40.6334 117.435 35.9834 117.435 31.1084C119.931 31.4084 122.275 31.2584 124.77 30.6584C127.568 29.9834 129.988 32.0084 130.064 34.7084C130.29 38.0834 130.215 41.5334 130.215 45.3584Z" fill="#3D020C"/>
<path d="M181.711 39.2084C182.24 44.0834 178.989 45.9584 174.678 45.5084C170.897 45.1334 168.629 41.7584 169.007 36.8834C169.309 32.9834 172.41 30.2834 176.493 30.4334C180.123 30.5834 182.316 32.6084 182.24 36.6584C180.803 35.7584 179.82 35.0084 178.686 34.4834C177.703 33.9584 176.644 33.3584 175.586 33.3584C173.242 33.4334 172.107 35.5334 172.41 38.9084C172.637 41.1584 173.468 42.8834 176.115 42.6584C176.947 42.5834 177.779 41.9084 178.611 41.4584C179.745 40.7834 180.728 39.9584 181.711 39.2084Z" fill="#3D020C"/>
<path d="M111.083 31.0334C112.142 31.0334 113.049 31.0334 114.108 31.0334C114.108 35.6834 114.108 40.3334 114.108 45.2084C113.201 45.2834 112.293 45.3584 111.083 45.4334C111.083 40.6334 111.083 35.9834 111.083 31.0334Z" fill="#3D020C"/>
<path d="M110.857 25.4834C112.142 25.4834 113.049 25.4834 114.184 25.4834C114.184 26.5334 114.184 27.4334 114.184 28.4834C113.201 28.5584 112.293 28.5584 111.083 28.6334C111.008 27.6584 110.932 26.7584 110.857 25.4834Z" fill="#3D020C"/>
<path d="M6.73002 52.3334C0.0756016 43.4084 0.604931 30.4334 7.56182 21.8834C15.1237 12.5084 27.8275 9.35836 38.7166 14.1584C49.7569 19.0334 55.882 30.2834 53.9915 42.4334C52.4035 52.5584 42.9512 61.9334 32.289 63.0584C32.9696 60.1334 33.0452 57.1334 34.4063 55.0334C37.1286 50.7584 40.6071 46.8584 43.8586 42.8834C45.1442 41.3084 46.8078 40.0334 47.8664 38.3084C50.135 34.9334 49.4544 32.3084 45.8247 30.3584C43.3293 29.0834 40.5314 28.4834 37.9604 27.3584C36.9018 26.9084 35.9943 25.9334 35.0113 25.2584C33.9526 24.5834 32.8184 23.4584 31.7597 23.5334C26.542 23.9084 21.0975 22.7834 16.1823 25.7084C12.477 27.9584 10.3597 30.9584 9.90599 35.2334C9.45228 39.5834 8.84733 43.8584 8.09115 48.1334C7.93991 49.4834 7.25935 50.7584 6.73002 52.3334Z" fill="#3D020C"/>
<path d="M29.4912 31.4834C29.4912 34.1834 27.2226 36.5084 24.576 36.5834C21.7025 36.6584 19.2827 34.4084 19.2827 31.5584C19.2071 28.8584 21.7025 26.3084 24.4247 26.3084C27.2226 26.2334 29.4912 28.6334 29.4912 31.4834ZM24.576 28.0334C22.3074 27.9584 21.1731 29.2334 20.8707 31.2584C20.6438 33.1334 22.4587 35.0834 24.3491 35.0084C26.6177 34.9334 28.0544 33.6584 27.9788 31.4834C27.9788 29.5334 26.8445 28.1084 24.576 28.0334Z" fill="#3D020C"/>
<path d="M24.5759 28.0334C26.8445 28.1084 27.9788 29.5334 28.0544 31.4834C28.0544 33.6584 26.6933 34.9334 24.4247 35.0084C22.5342 35.0834 20.7194 33.1334 20.9463 31.2584C21.1731 29.2334 22.3074 28.0334 24.5759 28.0334Z" fill="white"/>
</g>
<defs>
<clipPath id="clip0_185_89">
<rect width="214" height="75" fill="white" transform="translate(0 0.358398)"/>
</clipPath>
</defs>
</svg>
