<svg width="221" height="51" viewBox="0 0 221 51" fill="none" xmlns="http://www.w3.org/2000/svg">
<g clip-path="url(#clip0_185_80)">
<path d="M60.7593 17.5742C60.7593 15.9027 60.1897 15.067 59.0504 15.067C58.8139 15.0588 58.5773 15.0815 58.3465 15.1346C58.0486 15.196 57.7458 15.2301 57.4418 15.2364C57.3033 15.2386 57.166 15.211 57.0389 15.1555C56.9118 15.1 56.7978 15.0179 56.7045 14.9146C56.6049 14.8084 56.527 14.6835 56.4753 14.5468C56.4235 14.4102 56.3989 14.2646 56.4029 14.1184C56.4029 13.3277 56.8705 12.9324 57.8057 12.9324C57.828 12.9324 57.9948 12.9437 58.3062 12.9662C61.6455 13.192 63.204 13.3049 62.9817 13.3049H63.3135L71.3616 13.0676C71.5176 13.0676 72.0965 13.0336 73.0982 12.9658C73.4542 12.9433 73.7768 12.932 74.0662 12.932C75.2239 12.932 75.8028 13.4515 75.8028 14.4905C75.8028 14.6713 75.7709 15.2473 75.707 16.2184C75.6592 16.9412 75.6353 17.6076 75.6353 18.2175C75.626 18.7715 75.6446 19.3256 75.6912 19.8778C75.7532 20.3611 75.7905 20.8473 75.8028 21.3345C75.8028 22.1927 75.4007 22.6219 74.5964 22.6219C73.7922 22.6219 73.3901 22.0205 73.3901 20.8177V19.0478C73.3901 17.1418 73.0006 16.0184 72.2216 15.6777C71.6426 15.4283 70.1509 15.3036 67.7465 15.3036C66.8102 15.2721 65.8729 15.3067 64.9413 15.407C63.9838 15.6595 63.5051 16.3478 63.5051 17.472V20.8602C63.5051 21.7638 63.7033 22.2833 64.0997 22.4187C64.3603 22.4743 64.6267 22.497 64.8928 22.4863H66.2479C67.6361 22.4863 68.3302 22.0007 68.3302 21.0295C68.324 20.678 68.2959 20.3271 68.2462 19.9791C68.1936 19.5968 68.1655 19.2113 68.1623 18.8253C68.1623 17.9217 68.5588 17.4699 69.3519 17.4699C70.145 17.4699 70.5416 17.9555 70.5416 18.9267C70.5416 19.1074 70.4693 19.808 70.3248 21.0283C70.2096 21.9387 70.1477 22.8551 70.1393 23.7728C70.1393 24.2245 70.184 25.0264 70.2734 26.1786C70.2957 26.3594 70.3515 26.7547 70.4409 27.3646C70.4996 27.7573 70.5332 28.1535 70.5416 28.5506C70.565 28.7163 70.55 28.8852 70.4977 29.044C70.4453 29.2028 70.3571 29.3471 70.2401 29.4655C70.123 29.5838 69.9803 29.673 69.8232 29.7259C69.6662 29.7789 69.4991 29.7941 69.3352 29.7704C68.5532 29.7704 68.1623 29.2961 68.1623 28.3474C68.1707 27.9847 68.1987 27.6228 68.2462 27.2632C68.2938 26.9036 68.3218 26.5417 68.3302 26.179C68.3302 25.2079 67.6936 24.7223 66.4203 24.7223H64.9124C64.2646 24.7223 63.8681 24.8352 63.7227 25.061C63.5351 25.5218 63.4604 26.0215 63.5051 26.5177V28.6194C63.5051 28.9807 63.5162 29.4662 63.5385 30.0761C63.5608 30.8215 63.5719 31.3184 63.5719 31.5671C63.5942 32.4706 63.7728 33.0353 64.1078 33.2612C64.3524 33.4194 64.9331 33.4985 65.8502 33.4985H70.41C71.728 33.4985 72.6328 33.3009 73.1243 32.9055C73.6158 32.5102 73.8616 31.7705 73.8616 30.6864C73.8616 30.3477 73.8449 29.8451 73.8115 29.1786C73.7781 28.5121 73.7612 28.0094 73.7609 27.6704C73.7609 26.6539 74.1576 26.1456 74.951 26.1456C75.7884 26.1456 76.2071 26.6651 76.2071 27.7042C76.2071 28.1107 76.1904 28.7319 76.157 29.5676C76.1236 30.4033 76.1069 31.0245 76.1069 31.4311C76.1069 31.7473 76.1236 32.216 76.157 32.8371C76.1904 33.4583 76.2071 33.927 76.2071 34.2432C76.2071 35.3047 75.6933 35.8355 74.6657 35.8355C74.4212 35.8355 74.0302 35.8097 73.4928 35.758C73.2246 35.7316 72.7331 35.7185 72.0182 35.7185C72.1747 35.7185 71.3035 35.6926 69.4045 35.641C67.5055 35.5893 65.8636 35.5634 64.4787 35.5631C62.3787 35.5631 60.3235 35.6422 58.3131 35.8005C58.2117 35.8018 58.1107 35.8131 58.0115 35.8343H57.8114C56.8732 35.8343 56.4041 35.4277 56.4041 34.6145C56.4041 33.8917 56.7504 33.5303 57.443 33.5303C57.5546 33.5303 57.8562 33.5528 58.3478 33.5979C58.5769 33.6633 58.8136 33.6975 59.0516 33.6996C60.1909 33.6996 60.7605 32.8527 60.7605 31.1587L60.7593 17.5742ZM88.9084 30.9893V28.8209C88.9307 27.8948 89.3328 27.4318 90.1148 27.4318C90.8967 27.4318 91.2872 27.9509 91.2861 28.989C91.2861 31.4511 90.9754 33.1682 90.354 34.1402C89.5117 35.4503 88.125 36.1054 86.194 36.1054C84.4189 36.1054 83.1543 35.5294 82.4 34.3775C81.8455 33.5418 81.5682 32.1187 81.5682 30.1083V21.9769C81.5682 21.5025 81.3508 21.2653 80.9161 21.2653H79.8198C79.6525 21.2706 79.486 21.2419 79.33 21.1808C79.174 21.1197 79.0317 21.0275 78.9117 20.9096C78.7955 20.7986 78.7035 20.6643 78.6416 20.5153C78.5796 20.3663 78.549 20.2059 78.5518 20.0442C78.5523 19.8866 78.5836 19.7306 78.644 19.5853C78.7044 19.44 78.7926 19.3081 78.9036 19.1974C79.0018 19.0832 79.1226 18.9912 79.2583 18.9273C79.3939 18.8634 79.5413 18.8291 79.691 18.8265H80.998C81.3784 18.8265 81.5686 18.612 81.5686 18.1828V14.6929C81.5686 13.8346 82.0043 13.4055 82.8756 13.4055C83.6799 13.4055 84.082 13.8346 84.082 14.6929V18.3192C84.082 18.658 84.2831 18.8273 84.6852 18.8273H88.3378C89.1866 18.8273 89.611 19.2227 89.611 20.0133C89.611 20.8491 89.1531 21.2669 88.2371 21.2669H84.5507C84.238 21.2669 84.0816 21.5041 84.0816 21.9786V30.3135C84.0816 32.6852 84.8632 33.8711 86.4263 33.8711C88.012 33.8697 88.8394 32.9091 88.9084 30.9893ZM98.224 13.8168L98.0883 20.4176C98.8016 19.6897 99.631 19.0884 100.542 18.639C101.373 18.2938 102.265 18.1265 103.163 18.1478C105.09 18.1478 106.636 18.7012 107.801 19.8081C108.383 20.3691 108.84 21.0492 109.141 21.8028C109.442 22.5565 109.581 23.3665 109.549 24.1787V29.8371C109.549 31.1698 109.56 31.9039 109.582 32.0393C109.671 33.1687 109.962 33.7334 110.453 33.7334C110.719 33.7134 110.979 33.6494 111.224 33.5439C111.401 33.508 111.58 33.4919 111.76 33.4961C112.587 33.4961 113 33.8807 113 34.6499C113 35.4191 112.464 35.8038 111.392 35.8038C110.966 35.7935 110.541 35.7595 110.119 35.702C109.363 35.602 108.602 35.5454 107.84 35.5326C107.392 35.5252 106.944 35.5477 106.5 35.6002C105.561 35.7356 104.981 35.8034 104.757 35.8034C104.39 35.8159 104.031 35.6891 103.752 35.4477C103.623 35.3379 103.519 35.2003 103.45 35.0449C103.38 34.8895 103.346 34.7203 103.35 34.5498C103.349 34.4067 103.38 34.2654 103.441 34.1363C103.502 34.0072 103.591 33.8937 103.701 33.8043C103.928 33.6038 104.221 33.4952 104.522 33.4994C104.82 33.509 105.114 33.5661 105.393 33.6687C105.577 33.7335 105.77 33.7679 105.964 33.7705C106.634 33.7705 106.981 33.0364 107.003 31.5683C107.003 31.2972 107.025 30.7664 107.07 29.976V26.6896C107.07 24.3857 106.845 22.8385 106.397 22.0478C105.747 20.8734 104.603 20.2861 102.966 20.2861C101.194 20.2861 99.9051 20.896 99.0978 22.1158C98.5373 22.9515 98.2459 24.2955 98.2236 26.1477V28.5873C98.206 28.8177 98.161 29.0452 98.0895 29.2647V29.9084C98.0895 31.1958 98.1011 31.9411 98.1242 32.1444C98.2391 33.2513 98.5721 33.8047 99.1231 33.8047C99.3869 33.7898 99.6474 33.7385 99.8975 33.6522C100.137 33.5687 100.386 33.5174 100.638 33.4998C101.374 33.4998 101.741 33.8605 101.741 34.5819C101.741 35.3965 101.247 35.8038 100.257 35.8038C99.9418 35.8038 99.4693 35.7698 98.8394 35.702C98.1112 35.6192 97.3792 35.5739 96.6464 35.5664C96.2641 35.5664 95.7356 35.6003 95.0609 35.6682C94.161 35.7586 93.5873 35.8038 93.3398 35.8038C92.4176 35.8038 91.9565 35.3848 91.9565 34.5469C91.9565 33.8488 92.3888 33.4998 93.2534 33.4998C93.4735 33.4875 93.6938 33.5197 93.9014 33.5946C94.1688 33.6702 94.4432 33.7179 94.7202 33.7371C95.0843 33.7371 95.3288 33.3926 95.4538 32.7036C95.622 31.3032 95.6955 29.8927 95.6739 28.4822V22.4175C95.6739 19.0293 95.6069 16.8892 95.473 15.9971C95.339 15.1051 95.0266 14.6589 94.5356 14.6587C94.2983 14.6697 94.0626 14.7038 93.8317 14.7604C93.5899 14.819 93.3429 14.8531 93.0944 14.8622C92.3337 14.8622 91.9533 14.5008 91.9533 13.778C91.954 13.6204 91.9907 13.465 92.0605 13.324C92.1303 13.183 92.2312 13.0601 92.3555 12.965C92.6284 12.7373 92.9735 12.617 93.3272 12.6262C93.4388 12.6262 93.8192 12.6602 94.4683 12.728C94.9248 12.7747 95.3834 12.7973 95.8422 12.7956C96.1231 12.7879 96.403 12.7595 96.6798 12.7107C96.9345 12.6648 97.192 12.6364 97.4505 12.6258C97.9643 12.6258 98.2212 13.0001 98.2212 13.7488L98.224 13.8168ZM129.555 25.6767C129.599 26.2059 129.542 26.7389 129.387 27.2463C129.275 27.4386 128.95 27.5348 128.413 27.5348H117.727C117.529 27.5122 117.329 27.5539 117.156 27.6539C117.108 27.7056 117.07 27.7673 117.047 27.835C117.024 27.9026 117.015 27.9745 117.022 28.0458C116.971 29.6078 117.512 31.1305 118.534 32.3031C118.999 32.8491 119.577 33.2848 120.228 33.5792C120.878 33.8735 121.585 34.0193 122.297 34.0062C123.259 34.0131 124.2 33.7297 125.001 33.1924C125.764 32.7222 126.331 31.9877 126.597 31.1257L126.9 30.1433C126.957 29.8953 127.1 29.6763 127.304 29.5268C127.507 29.3774 127.758 29.3075 128.009 29.3303C128.838 29.3303 129.252 29.7594 129.252 30.6176C129.252 32.0858 128.515 33.3907 127.041 34.5325C125.604 35.6597 123.832 36.2622 122.014 36.2418C119.67 36.2418 117.805 35.4451 116.419 33.8517C115.033 32.2583 114.34 30.1182 114.34 27.4313C114.34 24.6756 115.077 22.4394 116.552 20.723C117.26 19.8841 118.146 19.2171 119.143 18.7713C120.141 18.3256 121.225 18.1125 122.315 18.1478C123.28 18.1173 124.24 18.2907 125.134 18.6569C126.029 19.0231 126.838 19.5741 127.509 20.2746C128.19 20.9912 128.721 21.8385 129.073 22.7663C129.424 23.6942 129.587 24.6838 129.554 25.6767H129.555ZM117.39 24.8228C117.39 25.139 117.636 25.2971 118.129 25.2971H126.166C126.637 25.2971 126.873 25.139 126.873 24.8228C126.876 24.2372 126.758 23.6574 126.526 23.1206C126.294 22.5839 125.954 22.1019 125.528 21.7058C125.115 21.2828 124.623 20.9478 124.08 20.7208C123.537 20.4938 122.954 20.3793 122.367 20.3842C121.094 20.391 119.87 20.8807 118.937 21.7565C117.905 22.6713 117.39 23.6934 117.39 24.8228ZM137.093 19.6903V20.6216C137.6 19.8451 138.292 19.211 139.107 18.7787C139.921 18.3463 140.831 18.1297 141.751 18.149C143.141 18.0867 144.502 18.5657 145.554 19.4875C146.03 19.9187 146.407 20.4499 146.659 21.0439C146.911 21.6379 147.031 22.2804 147.012 22.9264C147.051 23.7959 146.79 24.6522 146.275 25.3491C146.047 25.6485 145.751 25.8891 145.414 26.0511C145.076 26.213 144.705 26.2917 144.331 26.2808C143.852 26.2936 143.386 26.1243 143.024 25.8065C142.855 25.6669 142.719 25.4908 142.627 25.2911C142.534 25.0914 142.486 24.8732 142.488 24.6526C142.488 24.4728 142.524 24.2948 142.593 24.129C142.662 23.9633 142.763 23.813 142.89 23.6871C143.009 23.5541 143.153 23.4476 143.315 23.3747C143.476 23.3017 143.651 23.2638 143.828 23.2635C143.976 23.2812 144.122 23.3153 144.263 23.3653C144.387 23.1358 144.455 22.8807 144.464 22.6198C144.463 22.2941 144.385 21.9734 144.236 21.6846C144.087 21.3958 143.872 21.1472 143.608 20.9595C142.997 20.4939 142.246 20.2547 141.481 20.282C139.738 20.282 138.576 21.0725 137.996 22.6536C137.638 23.6247 137.46 25.0929 137.46 27.058V29.294C137.46 30.8075 137.471 31.6544 137.493 31.8349C137.606 33.1223 137.955 33.766 138.542 33.766C138.849 33.7642 139.156 33.7253 139.454 33.6502C139.665 33.5969 139.881 33.5678 140.098 33.5632C140.82 33.5632 141.18 33.9191 141.18 34.631C141.18 35.4098 140.722 35.7992 139.806 35.7992H139.672C139.162 35.7864 138.653 35.7468 138.148 35.6805C137.642 35.6143 137.133 35.5747 136.623 35.5619C135.729 35.5619 135.025 35.5844 134.512 35.6294L132.637 35.7988C131.721 35.7988 131.263 35.4035 131.263 34.6128C131.263 33.9125 131.691 33.5624 132.548 33.5624C132.718 33.5582 132.888 33.5696 133.055 33.5962L133.563 33.698C133.718 33.7338 133.877 33.7564 134.036 33.7656C134.6 33.7656 134.904 33.2461 134.949 32.2071V30.4792L134.848 22.7879C134.781 21.4552 134.446 20.7889 133.843 20.7889C133.595 20.7964 133.349 20.8248 133.106 20.8738C132.863 20.9227 132.616 20.9511 132.368 20.9587C131.631 20.9587 131.263 20.6028 131.263 19.8909C131.263 19.1121 131.743 18.7227 132.703 18.7227C133.04 18.7317 133.376 18.76 133.709 18.8076C134.042 18.8551 134.378 18.8834 134.714 18.8925C135.006 18.8821 135.297 18.8537 135.586 18.8076C135.792 18.7471 136.007 18.7185 136.222 18.7227C136.803 18.7238 137.093 19.0463 137.093 19.6903ZM155.536 18.1482C156.88 18.1005 158.2 18.519 159.276 19.3342V19.1986C159.276 18.3629 159.634 17.9451 160.349 17.9451C161.086 17.9451 161.454 18.3065 161.454 19.0293C161.454 19.1647 161.436 19.5036 161.399 20.0459C161.324 20.4938 161.287 20.9471 161.287 21.4013C161.287 21.6724 161.315 22.0677 161.371 22.5872C161.427 23.1067 161.455 23.5021 161.455 23.7732C161.455 24.6315 161.092 25.0606 160.366 25.0606C160.22 25.0792 160.072 25.0641 159.932 25.0164C159.793 24.9688 159.666 24.8898 159.561 24.7854C159.457 24.6811 159.376 24.5541 159.327 24.414C159.278 24.2738 159.261 24.1242 159.277 23.9764V22.8584C159.255 22.1806 158.867 21.5991 158.116 21.1136C157.323 20.6165 156.405 20.3633 155.473 20.385C154.546 20.3522 153.634 20.6323 152.881 21.1812C152.561 21.4005 152.298 21.6957 152.116 22.0412C151.934 22.3867 151.839 22.772 151.838 23.1633C151.838 24.609 152.824 25.4673 154.796 25.7385L156.746 26.0096C160.555 26.5291 162.46 28.1216 162.46 30.787C162.481 31.5444 162.325 32.2962 162.006 32.9817C161.687 33.6673 161.213 34.2675 160.623 34.734C159.397 35.7392 157.793 36.2418 155.81 36.2418C154.075 36.2789 152.379 35.7173 151.001 34.6495V35.294C151.001 36.1072 150.621 36.5138 149.86 36.5138C149.034 36.5138 148.62 36.0507 148.62 35.1246C148.717 34.5413 148.784 33.9533 148.821 33.363C148.866 33.049 148.888 32.7323 148.888 32.4152C148.891 31.9038 148.846 31.3933 148.754 30.8904C148.677 30.5225 148.632 30.1484 148.62 29.7724C148.62 28.9818 148.977 28.5864 149.692 28.5864C150.161 28.5864 150.457 28.6993 150.58 28.9252C150.756 29.506 150.829 30.1133 150.798 30.7198C150.821 31.691 151.323 32.4815 152.306 33.0914C153.449 33.7422 154.748 34.059 156.059 34.0062C157.033 34.0449 157.991 33.7462 158.773 33.1594C159.108 32.9164 159.38 32.5956 159.567 32.2242C159.753 31.8527 159.849 31.4414 159.846 31.0248C159.846 29.4888 158.639 28.5959 156.227 28.3462C153.925 28.0989 152.172 27.6415 150.966 26.9739C149.76 26.3063 149.156 25.1374 149.156 23.4671C149.136 22.7311 149.285 22.0006 149.593 21.3331C149.9 20.6656 150.356 20.0796 150.926 19.6214C152.107 18.6393 153.643 18.1482 155.536 18.1482ZM174.724 24.4841C174.724 23.5805 175.282 23.061 176.399 22.9256C176.354 22.5516 176.23 22.1918 176.036 21.8703C175.841 21.5489 175.581 21.2733 175.272 21.0621C174.538 20.5828 173.674 20.3461 172.8 20.3846C172.075 20.3661 171.356 20.526 170.706 20.8506C170.055 21.1752 169.493 21.6548 169.066 22.2481C168.124 23.4904 167.653 25.1388 167.653 27.1932C167.653 29.3165 168.095 30.9823 168.98 32.1906C169.398 32.7769 169.952 33.2494 170.594 33.5658C171.237 33.8823 171.946 34.0327 172.66 34.0038C173.587 34.0233 174.493 33.7251 175.23 33.1577C175.973 32.5698 176.5 31.7465 176.725 30.82C176.949 30.0293 177.084 29.5775 177.128 29.4646C177.224 29.2588 177.377 29.0854 177.568 28.9652C177.759 28.8451 177.98 28.7832 178.205 28.7871C178.379 28.781 178.552 28.8107 178.714 28.8744C178.875 28.9382 179.023 29.0347 179.146 29.158C179.269 29.2821 179.365 29.4302 179.428 29.5932C179.492 29.7562 179.522 29.9307 179.516 30.1058C179.48 30.8148 179.297 31.5082 178.98 32.1411C178.667 32.8635 178.236 33.5278 177.706 34.1064C177.052 34.8113 176.256 35.3665 175.372 35.7348C174.488 36.1031 173.536 36.276 172.581 36.2418C171.54 36.2792 170.504 36.0793 169.55 35.657C168.596 35.2347 167.748 34.6008 167.069 33.8022C165.672 32.1759 164.974 30.0414 164.974 27.3988C164.974 24.5966 165.694 22.3548 167.134 20.6735C168.574 18.9922 170.49 18.1508 172.881 18.1495C174.492 18.0904 176.072 18.6129 177.337 19.6235C177.901 20.065 178.355 20.6332 178.663 21.2831C178.972 21.933 179.126 22.6466 179.114 23.3673C179.142 24.118 178.898 24.8532 178.427 25.434C178.214 25.6955 177.945 25.9045 177.64 26.0454C177.335 26.1863 177.003 26.2552 176.668 26.247C176.157 26.2646 175.659 26.0827 175.277 25.7389C175.1 25.5832 174.959 25.3902 174.863 25.1734C174.768 24.9567 174.72 24.7214 174.724 24.4841ZM196.471 36.105C194.639 36.105 193.512 35.3031 193.089 33.6992C191.948 35.3943 190.16 36.2418 187.725 36.2418C185.916 36.2418 184.469 35.79 183.386 34.8865C182.856 34.4506 182.433 33.8962 182.151 33.2669C181.869 32.6375 181.735 31.9505 181.761 31.2601C181.72 30.4124 181.924 29.571 182.346 28.8374C182.768 28.1039 183.391 27.5097 184.14 27.1264C184.628 26.8362 185.152 26.6144 185.698 26.4671C186.133 26.3654 187.01 26.2355 188.329 26.0772C190.205 25.8739 191.428 25.5916 191.997 25.2304C192.566 24.8691 192.851 24.2028 192.853 23.2313C192.871 22.8174 192.795 22.4047 192.629 22.0258C192.463 21.6468 192.213 21.3118 191.898 21.0473C191.129 20.4745 190.187 20.1927 189.234 20.2511C188.234 20.2494 187.255 20.5438 186.419 21.098C186.084 21.3238 185.917 21.561 185.917 21.8096C185.917 21.9 186.017 22.0129 186.218 22.1484C186.385 22.2866 186.514 22.4643 186.596 22.6657C186.678 22.867 186.709 23.0857 186.687 23.3022C186.693 23.5132 186.652 23.7228 186.568 23.916C186.484 24.1093 186.359 24.2814 186.202 24.4202C185.864 24.7189 185.427 24.8764 184.979 24.8607C184.707 24.8673 184.437 24.8165 184.186 24.7115C183.935 24.6064 183.709 24.4496 183.521 24.2508C183.329 24.0547 183.179 23.8217 183.078 23.5656C182.977 23.3094 182.929 23.0355 182.935 22.7599C182.935 21.4962 183.554 20.412 184.794 19.5073C186.114 18.5789 187.694 18.1038 189.301 18.1519C193.367 18.1519 195.4 20.124 195.4 24.0683V30.8978C195.38 31.5409 195.402 32.1847 195.467 32.8248C195.601 33.6135 195.981 34.0079 196.608 34.0079C197.39 34.0079 197.781 33.29 197.781 31.8543V30.2059C197.781 29.4881 198.122 29.1292 198.803 29.1292C199.529 29.1292 199.892 29.6712 199.892 30.7553V32.8569C199.845 35.0226 198.705 36.1054 196.471 36.1054V36.105ZM192.718 29.3628V26.9574C192.274 27.3817 191.745 27.7048 191.166 27.9053C190.21 28.1571 189.232 28.3159 188.246 28.3796C185.71 28.6268 184.441 29.5754 184.441 31.2255C184.425 31.6138 184.501 32.0004 184.661 32.3537C184.821 32.707 185.061 33.017 185.363 33.2583C186.085 33.7895 186.967 34.0528 187.859 34.0038C189.356 34.0038 190.534 33.5917 191.394 32.7675C191.835 32.3228 192.18 31.7908 192.408 31.2049C192.636 30.6191 192.741 29.9919 192.718 29.3628ZM206.089 19.7583V20.7234C206.715 19.8936 207.528 19.2271 208.461 18.7792C209.393 18.3313 210.418 18.115 211.45 18.1482C212.651 18.1467 213.83 18.4683 214.868 19.08C215.832 19.5836 216.599 20.4013 217.046 21.4008C217.391 22.3664 217.551 23.3899 217.515 24.4161V30.8538C217.515 31.8249 217.526 32.4009 217.548 32.5816C217.66 33.3509 217.962 33.7355 218.453 33.7355C218.717 33.7289 218.981 33.7005 219.241 33.6506C219.467 33.6053 219.697 33.5769 219.927 33.5657C220.067 33.5639 220.205 33.5899 220.334 33.6423C220.464 33.6946 220.582 33.7722 220.681 33.8707C220.783 33.9651 220.865 34.0803 220.92 34.2088C220.974 34.3373 221.002 34.4762 221 34.6161C221.002 34.7791 220.966 34.9403 220.896 35.0872C220.827 35.234 220.724 35.3627 220.597 35.463C220.324 35.6906 219.979 35.8109 219.626 35.8017C219.11 35.7845 218.596 35.7388 218.085 35.6649C217.418 35.5777 216.746 35.5324 216.074 35.5293C215.593 35.5243 215.112 35.5468 214.633 35.5969C213.516 35.7323 212.924 35.8001 212.857 35.8001C211.964 35.8001 211.517 35.4047 211.517 34.6141C211.517 33.9138 211.904 33.5636 212.679 33.5636C212.885 33.5662 213.091 33.5888 213.293 33.6312C213.562 33.6972 213.836 33.7433 214.111 33.7693C214.658 33.7693 214.954 33.1481 215 31.9058V25.5345C215.029 24.7067 214.973 23.8781 214.833 23.062C214.665 22.2531 214.2 21.5387 213.531 21.0629C212.798 20.5439 211.922 20.2712 211.028 20.2837C209.247 20.2837 207.968 20.9273 207.189 22.2147C206.655 23.0958 206.388 24.5978 206.388 26.7209V31.2271C206.352 31.9111 206.42 32.5966 206.589 33.2599C206.634 33.4208 206.731 33.5616 206.865 33.6599C206.998 33.7582 207.161 33.8082 207.326 33.8018C207.575 33.7911 207.823 33.7512 208.063 33.6832C208.315 33.6131 208.573 33.5732 208.834 33.5645C209.526 33.5645 209.873 33.9428 209.873 34.6994C209.873 35.4334 209.426 35.8005 208.532 35.8005C208.353 35.8005 207.773 35.7327 206.79 35.5973C206.245 35.5261 205.697 35.4921 205.148 35.4955C204.521 35.5065 203.895 35.5517 203.273 35.6311C202.29 35.744 201.732 35.8005 201.598 35.8005C200.659 35.8005 200.19 35.4158 200.19 34.6466C200.171 34.4978 200.186 34.3463 200.234 34.2043C200.282 34.0623 200.362 33.9336 200.468 33.8284C200.574 33.7232 200.703 33.6444 200.844 33.5982C200.986 33.552 201.136 33.5398 201.283 33.5624C201.496 33.5774 201.707 33.6114 201.914 33.6642C202.211 33.7309 202.514 33.765 202.818 33.766C203.501 33.766 203.854 33.1109 203.878 31.8007V22.7562C203.879 22.2174 203.781 21.683 203.588 21.1808C203.515 21.042 203.403 20.9279 203.266 20.8526C203.13 20.7774 202.974 20.7442 202.819 20.7572C202.584 20.7677 202.349 20.8018 202.12 20.8589C201.891 20.9161 201.657 20.9502 201.421 20.9607C200.602 20.9607 200.192 20.5937 200.192 19.8596C200.192 19.103 200.695 18.7247 201.7 18.7247C201.813 18.7224 201.925 18.7338 202.035 18.7585L203.275 18.8941C203.589 18.898 203.903 18.8695 204.212 18.8092C204.793 18.7526 205.095 18.7243 205.117 18.7243C205.765 18.7243 206.089 19.069 206.089 19.7583Z" fill="#3D020C"/>
<path d="M10.2795 24.1637C10.2795 23.8845 10.3341 23.6081 10.4401 23.3503C10.5461 23.0925 10.7014 22.8584 10.8971 22.6615C11.0928 22.4646 11.3251 22.3087 11.5805 22.2028C11.836 22.0968 12.1096 22.043 12.3858 22.0443L15.8777 22.0558C16.4345 22.0558 16.9685 22.2795 17.3622 22.6775C17.7559 23.0756 17.9771 23.6155 17.9771 24.1785V37.5302C18.3704 37.4123 18.8737 37.2866 19.4276 37.1548C19.8113 37.0635 20.1533 36.8438 20.3981 36.5314C20.6429 36.2189 20.7761 35.8321 20.7762 35.4335V18.8729C20.7762 18.3098 20.9974 17.7699 21.3911 17.3718C21.7848 16.9736 22.3188 16.7499 22.8756 16.7498H26.3782C26.935 16.7499 27.469 16.9736 27.8627 17.3718C28.2563 17.7699 28.4775 18.3098 28.4775 18.8729V34.2438C28.4775 34.2438 29.3538 33.8853 30.2068 33.521C30.5238 33.3854 30.7943 33.1585 30.9845 32.8685C31.1748 32.5785 31.2764 32.2383 31.2766 31.8903V13.566C31.2766 13.0031 31.4978 12.4632 31.8914 12.0652C32.285 11.6671 32.8189 11.4434 33.3756 11.4433H36.8745C37.4309 11.4438 37.9644 11.6677 38.3577 12.0657C38.7509 12.4638 38.9718 13.0034 38.9718 13.566V28.6554C42.0053 26.4326 45.0795 23.759 47.5192 20.5443C47.8732 20.0777 48.1074 19.5297 48.201 18.9493C48.2946 18.3689 48.2446 17.774 48.0556 17.2179C46.9262 13.9328 45.1311 10.9222 42.785 8.37882C40.4389 5.83544 37.5936 3.81526 34.431 2.44756C31.2684 1.07986 27.8583 0.394754 24.4188 0.436091C20.9794 0.477428 17.5863 1.24429 14.4568 2.68762C11.3273 4.13094 8.53019 6.21893 6.24456 8.81798C3.95892 11.417 2.23506 14.4699 1.18329 17.7812C0.131512 21.0926 -0.225014 24.5895 0.136522 28.0481C0.498057 31.5068 1.56969 34.851 3.28286 37.8669C3.58133 38.3871 4.02045 38.8104 4.54863 39.0871C5.0768 39.3638 5.6721 39.4823 6.26458 39.4287C6.92646 39.3698 7.75055 39.2865 8.73033 39.1703C9.15675 39.1212 9.55043 38.9153 9.8364 38.5918C10.1224 38.2682 10.2807 37.8496 10.2811 37.4156V24.1637" fill="#3D020C"/>
<path d="M10.2048 45.5762C13.8929 48.2891 18.2514 49.9174 22.798 50.2812C27.3446 50.6449 31.9021 49.7298 35.9662 47.6371C40.0304 45.5444 43.4428 42.3558 45.8258 38.4239C48.2089 34.492 49.4698 29.9702 49.4689 25.3587C49.4689 24.7818 49.4424 24.2139 49.4045 23.6477C40.3717 37.2693 23.6935 43.6373 10.2048 45.5762Z" fill="#BFCFDA"/>
</g>
<defs>
<clipPath id="clip0_185_80">
<rect width="221" height="50" fill="white" transform="translate(0 0.358398)"/>
</clipPath>
</defs>
</svg>
